<svg xmlns="http://www.w3.org/2000/svg" width="45" height="33" viewBox="0 0 45 33">
  <defs>
    <style>
      .cls-1 {
        fill: #2196f3;
        fill-rule: evenodd;
      }
    </style>
  </defs>
  <path class="cls-1" d="M894.041,3220.01h-15.6a13.87,13.87,0,0,0-3.966-6.49,13.179,13.179,0,0,0-10.522-3.43,13.665,13.665,0,0,0-11.871,12.28,14.038,14.038,0,0,0,2.628,9.73,13.423,13.423,0,0,0,7.925,5.21l3.326,3.41a1.449,1.449,0,0,0,1.027.43,1.37,1.37,0,0,0,.559-0.11,1.484,1.484,0,0,0,.9-1.38v-2.38a14.02,14.02,0,0,0,1.6-.48v0.1a3,3,0,0,0,2.959,3.03h4.968l2.646,2.71a1.226,1.226,0,0,0,.872.37,1.133,1.133,0,0,0,.473-0.1,1.247,1.247,0,0,0,.762-1.16v-1.82h11.317A3,3,0,0,0,897,3236.9v-13.86A3,3,0,0,0,894.041,3220.01Zm-26.421,15.96a0.723,0.723,0,0,0-.581.71v2.98a0.048,0.048,0,0,1-.029.05,0.036,0.036,0,0,1-.051-0.02l-3.474-3.55a0.659,0.659,0,0,0-.361-0.2,12.013,12.013,0,0,1-7.287-4.7,12.613,12.613,0,0,1-2.352-8.73,12.424,12.424,0,0,1,3.437-7.39,11.89,11.89,0,0,1,7.188-3.59,10.964,10.964,0,0,1,1.4-.08,11.755,11.755,0,0,1,8.031,3.15,12.5,12.5,0,0,1,4.021,9.21A12.252,12.252,0,0,1,867.62,3235.97Zm27.971,0.93a1.568,1.568,0,0,1-1.55,1.58H882.019a0.719,0.719,0,0,0-.7.73v2.1l-2.554-2.61a0.687,0.687,0,0,0-.5-0.22H873a1.568,1.568,0,0,1-1.55-1.58v-0.71a13.816,13.816,0,0,0,7.514-12.38,14.258,14.258,0,0,0-.2-2.36h15.274a1.57,1.57,0,0,1,1.55,1.59v13.86h0Zm-4.057-11.29a0.7,0.7,0,0,0-1,0l-7.016,7.19-3.257-3.34a0.7,0.7,0,0,0-1,0,0.734,0.734,0,0,0,0,1.02l3.755,3.85a0.7,0.7,0,0,0,1,0l7.514-7.7A0.734,0.734,0,0,0,891.534,3225.61Zm-26.044,3.64h0a0.711,0.711,0,0,0-.705.72h0a0.711,0.711,0,0,0,.705.72h0a0.711,0.711,0,0,0,.705-0.72h0A0.711,0.711,0,0,0,865.49,3229.25Zm3.137-10.96a4.349,4.349,0,0,0-3.138-1.36,4.521,4.521,0,0,0-4.461,4.57,0.7,0.7,0,1,0,1.409,0,3.09,3.09,0,0,1,3.052-3.12,2.99,2.99,0,0,1,2.142.93,3.132,3.132,0,0,1-1.263,5.19,2.242,2.242,0,0,0-1.583,2.16v0.23a0.7,0.7,0,1,0,1.409,0v-0.23a0.816,0.816,0,0,1,.579-0.78A4.588,4.588,0,0,0,868.627,3218.29Z" transform="translate(-852 -3210)"/>
</svg>
