<svg xmlns="http://www.w3.org/2000/svg" width="39" height="39" viewBox="0 0 39 39">
  <defs>
    <style>
      .cls-1 {
        fill: #2196f3;
        fill-rule: evenodd;
      }
    </style>
  </defs>
  <path id="Forma_1" data-name="Forma 1" class="cls-1" d="M226.114,3580.61a0.842,0.842,0,0,0-.887.89v17.68a0.841,0.841,0,0,1-.886.89H220.8a0.885,0.885,0,1,0,0,1.77h3.546a2.61,2.61,0,0,0,2.659-2.66V3581.5A0.841,0.841,0,0,0,226.114,3580.61Zm-33.682-7.07a0.885,0.885,0,1,1-.887.88A0.881,0.881,0,0,1,192.432,3573.54Zm2.659,0a0.885,0.885,0,1,1-.886.88A0.881,0.881,0,0,1,195.091,3573.54Zm2.659,0a0.885,0.885,0,1,1-.886.88A0.881,0.881,0,0,1,197.75,3573.54Zm24.818,0H201.3a0.885,0.885,0,1,0,0,1.77h21.273A0.885,0.885,0,1,0,222.568,3573.54Zm-2.925,18.21-1.152-.26a12.79,12.79,0,0,0-.975-2.3l0.62-.97a2.676,2.676,0,0,0-.443-3.27l-0.443-.45a2.7,2.7,0,0,0-3.28-.44l-0.975.62a17.75,17.75,0,0,0-2.3-.97l-0.266-1.15a2.587,2.587,0,0,0-2.571-1.95h-0.8a2.572,2.572,0,0,0-2.571,2.04l-0.266,1.15a12.611,12.611,0,0,0-2.3.97l-0.975-.62a2.7,2.7,0,0,0-3.28.44l-0.443.44a2.691,2.691,0,0,0-.443,3.28l0.62,0.97a17.928,17.928,0,0,0-.975,2.3l-1.152.26a2.588,2.588,0,0,0-1.95,2.57v0.79a2.573,2.573,0,0,0,2.039,2.57l1.152,0.26a12.494,12.494,0,0,0,.975,2.3l-0.62.98a2.438,2.438,0,0,0,.354,3.18l0.532,0.53a2.7,2.7,0,0,0,3.28.44l0.975-.62a17.779,17.779,0,0,0,2.3.98l0.266,1.15a2.656,2.656,0,0,0,2.57,2.03h0.8a2.573,2.573,0,0,0,2.571-2.03l0.265-1.15a12.649,12.649,0,0,0,2.305-.98l0.975,0.62a2.7,2.7,0,0,0,3.28-.44l0.531-.53a2.677,2.677,0,0,0,.444-3.27l-0.621-.98a17.646,17.646,0,0,0,.975-2.29l0.975-.27a2.663,2.663,0,0,0,2.039-2.56v-0.8A2.573,2.573,0,0,0,219.643,3591.75Zm0.266,3.37a0.86,0.86,0,0,1-.709.88l-1.595.44a0.76,0.76,0,0,0-.621.62,10.566,10.566,0,0,1-1.152,2.74,0.812,0.812,0,0,0,0,.89l0.886,1.41a0.814,0.814,0,0,1-.177,1.06l-0.532.53a0.932,0.932,0,0,1-1.064.18l-1.418-.88a0.794,0.794,0,0,0-.886,0,10.839,10.839,0,0,1-2.748,1.15,0.858,0.858,0,0,0-.62.61l-0.443,1.6a0.953,0.953,0,0,1-.887.7h-0.8a0.858,0.858,0,0,1-.886-0.7l-0.443-1.6a0.855,0.855,0,0,0-.62-0.61,10.839,10.839,0,0,1-2.748-1.15,0.788,0.788,0,0,0-.443-0.09,0.658,0.658,0,0,0-.444.09l-1.418.88a0.812,0.812,0,0,1-1.064-.18l-0.531-.53a0.934,0.934,0,0,1-.178-1.06l0.887-1.41a0.812,0.812,0,0,0,0-.89,10.532,10.532,0,0,1-1.152-2.74,0.887,0.887,0,0,0-.621-0.62l-1.595-.44a0.951,0.951,0,0,1-.71-0.88v-0.8a0.853,0.853,0,0,1,.71-0.88l1.595-.45a0.871,0.871,0,0,0,.621-0.62,10.678,10.678,0,0,1,1.152-2.74,0.8,0.8,0,0,0,0-.88l-0.887-1.42a0.817,0.817,0,0,1,.178-1.06l0.531-.53a0.967,0.967,0,0,1,1.064-.18l1.418,0.89a0.8,0.8,0,0,0,.887,0,10.483,10.483,0,0,1,2.747-1.15,0.871,0.871,0,0,0,.621-0.62l0.443-1.59a0.949,0.949,0,0,1,.886-0.71h0.8a0.866,0.866,0,0,1,.886.71l0.444,1.59a0.884,0.884,0,0,0,.62.62,10.5,10.5,0,0,1,2.748,1.15,0.794,0.794,0,0,0,.886,0l1.418-.89a0.835,0.835,0,0,1,1.064.18l0.532,0.53a0.94,0.94,0,0,1,.177,1.06l-0.886,1.42a0.792,0.792,0,0,0,0,.88,10.713,10.713,0,0,1,1.152,2.74,0.869,0.869,0,0,0,.62.62l1.6,0.45a0.942,0.942,0,0,1,.709.88v0.8h0Zm4.432-25.12H190.659a2.608,2.608,0,0,0-2.659,2.65v26.53a2.61,2.61,0,0,0,2.659,2.66H194.2a0.885,0.885,0,1,0,0-1.77h-3.545a0.841,0.841,0,0,1-.886-0.89v-26.53a0.833,0.833,0,0,1,.886-0.88h33.682a0.833,0.833,0,0,1,.886.88v4.42h-32.8a0.885,0.885,0,1,0,0,1.77h33.682a0.834,0.834,0,0,0,.886-0.88v-5.31A2.608,2.608,0,0,0,224.341,3570Zm-12.764,18.92a0.949,0.949,0,0,0-1.241.18,0.937,0.937,0,0,0,.178,1.24,5.52,5.52,0,0,1,2.3,4.42,4.637,4.637,0,0,1-.354,1.86l-4.078-2.39v-5.66a0.833,0.833,0,0,0-.886-0.88,7.075,7.075,0,1,0,7.091,7.07A7.251,7.251,0,0,0,211.577,3588.92Zm-9.4,5.84a5.335,5.335,0,0,1,4.432-5.22v4.69l-4.078,2.39A4.62,4.62,0,0,1,202.182,3594.76Zm5.318,5.31a5.045,5.045,0,0,1-4.077-1.95l4.077-2.39,4.077,2.39A5.045,5.045,0,0,1,207.5,3600.07Z" transform="translate(-188 -3570)"/>
</svg>
