<svg xmlns="http://www.w3.org/2000/svg" width="40" height="32" viewBox="0 0 40 32">
  <defs>
    <style>
      .cls-1 {
        fill: #2196f3;
        fill-rule: evenodd;
      }
    </style>
  </defs>
  <path id="Forma_1" data-name="Forma 1" class="cls-1" d="M223.03,2880.52H192.97a0.585,0.585,0,1,0,0,1.17h30.06A0.585,0.585,0,1,0,223.03,2880.52Zm0,22.64H192.97a0.585,0.585,0,0,0-.586.59,0.592,0.592,0,0,0,.586.59h30.06a0.592,0.592,0,0,0,.586-0.59A0.585,0.585,0,0,0,223.03,2903.16Zm3.758,2.52h-0.667v-25.2a2.473,2.473,0,0,0-2.465-2.48H192.343a2.473,2.473,0,0,0-2.464,2.48v25.2h-0.667A1.213,1.213,0,0,0,188,2906.9v1.25a1.846,1.846,0,0,0,1.838,1.85h36.323a1.847,1.847,0,0,0,1.839-1.85v-1.25A1.213,1.213,0,0,0,226.788,2905.68Zm-35.737-25.2a1.3,1.3,0,0,1,1.292-1.3h31.314a1.3,1.3,0,0,1,1.292,1.3v25.2h-33.9v-25.2Zm35.777,27.67h0a0.669,0.669,0,0,1-.667.67H189.838a0.669,0.669,0,0,1-.666-0.67v-1.25a0.044,0.044,0,0,1,.04-0.05h16.325c0,0.02,0,.03,0,0.05a0.584,0.584,0,0,0,.586.58h3.758a0.583,0.583,0,0,0,.586-0.58c0-.02,0-0.03,0-0.05h16.325a0.044,0.044,0,0,1,.04.05v1.25h0Zm-12.96-18.93-1.587-.4v-2.4a1.218,1.218,0,0,0-.525-1,1.184,1.184,0,0,0-1.122-.13l-7.189,2.77h-3.022a1.847,1.847,0,0,0-1.839,1.85v2.52a1.838,1.838,0,0,0,1.165,1.71l1.854,5.59a1.206,1.206,0,0,0,1.15.83h1.811a1.2,1.2,0,0,0,.983-0.5,1.233,1.233,0,0,0,.167-1.1l-1.451-4.37,6.371,2.46a1.1,1.1,0,0,0,.435.08,1.206,1.206,0,0,0,1.212-1.22v-2.39l1.587-.4a1.216,1.216,0,0,0,.918-1.18v-1.54A1.216,1.216,0,0,0,213.868,2889.22Zm-14.112,3.21v-2.52a0.669,0.669,0,0,1,.667-0.67h2.545v3.86h-2.545A0.669,0.669,0,0,1,199.756,2892.43Zm4.846,6.9a0.043,0.043,0,0,1,0,.04,0.035,0.035,0,0,1-.033.02h-1.811a0.037,0.037,0,0,1-.038-0.03l-1.688-5.09h1.9Zm6.507-3.42a0.043,0.043,0,0,1-.017.04,0.045,0.045,0,0,1-.037,0l-6.915-2.67v-4.22l6.915-2.67c0.006-.01.019-0.01,0.037,0a0.037,0.037,0,0,1,.017.03v9.49Zm2.506-3.97a0.061,0.061,0,0,1-.031.04l-1.3.32v-2.26l1.3,0.32a0.046,0.046,0,0,1,.031.04v1.54Zm6.222-1.36h-3.131a0.585,0.585,0,0,0-.586.59,0.592,0.592,0,0,0,.586.59h3.131a0.592,0.592,0,0,0,.586-0.59A0.585,0.585,0,0,0,219.837,2890.58Zm-1.981-2.82a0.58,0.58,0,0,0-.786-0.26l-1.253.63a0.585,0.585,0,0,0,.263,1.11,0.607,0.607,0,0,0,.261-0.06l1.253-.63A0.589,0.589,0,0,0,217.856,2887.76Zm-0.262,6.03-1.253-.63a0.58,0.58,0,0,0-.786.26,0.589,0.589,0,0,0,.262.79l1.253,0.63a0.607,0.607,0,0,0,.261.06A0.585,0.585,0,0,0,217.594,2893.79Z" transform="translate(-188 -2878)"/>
</svg>
