<svg xmlns="http://www.w3.org/2000/svg" width="40" height="40" viewBox="0 0 40 40">
  <defs>
    <style>
      .cls-1 {
        fill: #2196f3;
        fill-rule: evenodd;
      }
    </style>
  </defs>
  <path id="Forma_1" data-name="Forma 1" class="cls-1" d="M522.667,3237.33v-2.4l6.093-6.71a1.965,1.965,0,0,0,2.573-.06l4.714,3.53a2,2,0,0,0,3.953-.36,1.635,1.635,0,0,0-.04-0.36l5.227-5.81a2.064,2.064,0,0,0,.813.17,1.968,1.968,0,0,0,1.287-.48l4.886,4.34a2.067,2.067,0,0,0-.173.81,2,2,0,1,0,2-2,1.921,1.921,0,0,0-.907.23L548,3223.67a1.929,1.929,0,0,0,0-.34,2,2,0,0,0-4,0,1.908,1.908,0,0,0,.227.9l-4.987,5.54a2.061,2.061,0,0,0-1.24-.44,2.02,2.02,0,0,0-1.673.92L532,3226.97a1.5,1.5,0,0,0,0-.3,2,2,0,0,0-4,0,1.635,1.635,0,0,0,.04.36l-5.373,5.91v-7.33l6.433-5.85A1.96,1.96,0,0,0,532,3218a1.659,1.659,0,0,0-.04-0.37l5.033-5.63a1.93,1.93,0,0,0,.34,0,2.013,2.013,0,0,0,1.427-.6l5.333,1.77a2,2,0,0,0,3.907-.78l4.667-2.92A2.007,2.007,0,1,0,552,3208a1.869,1.869,0,0,0,0,.28l-4.667,2.92a2,2,0,0,0-2.825.12,2.059,2.059,0,0,0-.328.49l-4.847-1.63a1.351,1.351,0,0,0,0-.18,2,2,0,0,0-4-.03,2.034,2.034,0,0,0,.48,1.32l-4.58,5.15A1.975,1.975,0,0,0,530,3216a2,2,0,0,0-2,2,1.909,1.909,0,0,0,.18.81l-5.513,5.02V3204h-1.334v1.33H520v1.34h1.333v6.66H520v1.34h1.333v6.66H520v1.34h1.333v6.66H520v1.34h1.333V3238a0.669,0.669,0,0,0,.667.67h7.333V3240h1.334v-1.33h6.666V3240h1.334v-1.33h6.666V3240h1.334v-1.33h6.666V3240h1.334v-1.33H560v-1.34H522.667Zm31.333-8a0.67,0.67,0,1,1-.667.67A0.669,0.669,0,0,1,554,3229.33Zm-8-6.66a0.66,0.66,0,0,1,.667.66,0.667,0.667,0,1,1-1.334,0A0.66,0.66,0,0,1,546,3222.67Zm-8,8a0.66,0.66,0,0,1,.667.66,0.667,0.667,0,1,1-1.334,0A0.66,0.66,0,0,1,538,3230.67Zm-8-4.67a0.665,0.665,0,1,1-.667.67A0.669,0.669,0,0,1,530,3226Zm24-18.67a0.67,0.67,0,1,1-.667.67A0.669,0.669,0,0,1,554,3207.33Zm-8,4.67a0.665,0.665,0,1,1-.667.67A0.669,0.669,0,0,1,546,3212Zm-8.667-2.67a0.67,0.67,0,1,1-.666.67A0.669,0.669,0,0,1,537.333,3209.33Zm-7.333,8a0.67,0.67,0,1,1-.667.67A0.669,0.669,0,0,1,530,3217.33Zm2.667,25.34H534V3244h-1.333v-1.33Zm2.666,0h1.334V3244h-1.334v-1.33Zm2.667,0h1.333V3244H538v-1.33Zm2.667,0H542V3244h-1.333v-1.33Zm2.666,0h1.334V3244h-1.334v-1.33Zm2.667,0h1.333V3244H546v-1.33Z" transform="translate(-520 -3204)"/>
</svg>
