<svg xmlns="http://www.w3.org/2000/svg" width="37" height="37" viewBox="0 0 37 37">
  <defs>
    <style>
      .cls-1 {
        fill: #2196f3;
        fill-rule: evenodd;
      }
    </style>
  </defs>
  <path class="cls-1" d="M219.45,3226.97a0.611,0.611,0,0,0-.616.61v4.94a1.852,1.852,0,0,1-1.85,1.85H196.018a1.852,1.852,0,0,1-1.85-1.85v-4.94a0.617,0.617,0,0,0-1.234,0v4.94a3.085,3.085,0,0,0,3.084,3.08h20.966a3.084,3.084,0,0,0,3.083-3.08v-4.94A0.611,0.611,0,0,0,219.45,3226.97Zm-25.282-1.85v-6.17a1.852,1.852,0,0,1,1.85-1.85h4.933a0.619,0.619,0,0,0,.616-0.62c0-2.43,2.653-4.31,4.934-4.31a5.383,5.383,0,0,1,4.229,2.2,0.617,0.617,0,1,0,1.009-.71,6.634,6.634,0,0,0-4.622-2.69v-1.38a1.85,1.85,0,1,0-1.233,0v1.38c-2.541.28-5.151,2.25-5.508,4.9h-4.358a3.085,3.085,0,0,0-3.084,3.08v5.55h-1.347a1.855,1.855,0,1,0,0,1.23h1.965A0.611,0.611,0,0,0,194.168,3225.12Zm12.333-17.89a0.62,0.62,0,1,1-.617.62A0.62,0.62,0,0,1,206.5,3207.23Zm-16.651,18.5a0.612,0.612,0,0,1-.617-0.61,0.617,0.617,0,1,1,1.234,0A0.612,0.612,0,0,1,189.85,3225.73Zm33.3-2.46a1.838,1.838,0,0,0-1.736,1.23h-1.347v-5.55a3.084,3.084,0,0,0-3.083-3.08H203.417a0.611,0.611,0,0,0-.616.61,0.619,0.619,0,0,0,.616.62h13.567a1.852,1.852,0,0,1,1.849,1.85v6.17a0.611,0.611,0,0,0,.617.61h1.964A1.846,1.846,0,1,0,223.15,3223.27Zm0,2.46a0.612,0.612,0,0,1-.617-0.61,0.617,0.617,0,1,1,1.234,0A0.612,0.612,0,0,1,223.15,3225.73Zm-11.1,11.1h-11.1a0.62,0.62,0,0,0,0,1.24h11.1A0.62,0.62,0,0,0,212.05,3236.83Zm3.084-14.18a1.85,1.85,0,1,0-1.85,1.85A1.852,1.852,0,0,0,215.134,3222.65Zm-2.467,0a0.617,0.617,0,1,1,.617.62A0.62,0.62,0,0,1,212.667,3222.65Zm-11.1,0a1.85,1.85,0,1,0-1.85,1.85A1.852,1.852,0,0,0,201.567,3222.65Zm-1.85.62a0.62,0.62,0,1,1,.617-0.62A0.62,0.62,0,0,1,199.717,3223.27Zm11.1,18.5h-8.633a0.611,0.611,0,0,0-.617.61,0.62,0.62,0,0,0,.617.62h8.633a0.62,0.62,0,0,0,.617-0.62A0.611,0.611,0,0,0,210.817,3241.77Zm-10.483-12.95v2.46a0.62,0.62,0,0,0,.617.62h11.1a0.62,0.62,0,0,0,.617-0.62v-2.46a0.62,0.62,0,0,0-.617-0.62h-11.1A0.62,0.62,0,0,0,200.334,3228.82Zm8.633,0.61h2.467v1.24h-2.467v-1.24Zm-3.7,0h2.467v1.24h-2.467v-1.24Zm-3.7,0h2.467v1.24h-2.467v-1.24Zm9.25,9.87h-8.633a0.62,0.62,0,0,0-.617.62,0.611,0.611,0,0,0,.617.61h8.633a0.611,0.611,0,0,0,.617-0.61A0.62,0.62,0,0,0,210.817,3239.3Z" transform="translate(-188 -3206)"/>
</svg>
