<svg xmlns="http://www.w3.org/2000/svg" width="36" height="29" viewBox="0 0 36 29">
  <defs>
    <style>
      .cls-1 {
        fill: #2196f3;
        fill-rule: evenodd;
      }
    </style>
  </defs>
  <path id="Forma_1" data-name="Forma 1" class="cls-1" d="M883.527,2883.28H856.473a0.535,0.535,0,0,0,0,1.07h27.054A0.535,0.535,0,0,0,883.527,2883.28Zm0,20.52H856.473a0.535,0.535,0,0,0,0,1.07h27.054A0.535,0.535,0,0,0,883.527,2903.8Zm-7.421-2.98-1.025-11.41a1.09,1.09,0,0,0-1.087-1h-1.776v-0.61a2.218,2.218,0,1,0-4.436,0v0.61h-1.776a1.09,1.09,0,0,0-1.087,1l-1.025,11.41a1.121,1.121,0,0,0,.281.84,1.083,1.083,0,0,0,.806.36h10.038a1.083,1.083,0,0,0,.806-0.36A1.121,1.121,0,0,0,876.106,2900.82ZM870,2886.63a1.172,1.172,0,0,1,1.164,1.17v0.61h-2.328v-0.61h0A1.172,1.172,0,0,1,870,2886.63Zm5.046,14.31a0.037,0.037,0,0,1-.027.01H864.981a0.037,0.037,0,0,1-.027-0.01,0.03,0.03,0,0,1-.009-0.03l1.024-11.4a0.034,0.034,0,0,1,.037-0.03h1.776v1.17a0.527,0.527,0,1,0,1.054,0v-1.17h2.328v1.17a0.527,0.527,0,1,0,1.054,0v-1.17h1.776a0.034,0.034,0,0,1,.037.03l1.024,11.4A0.03,0.03,0,0,1,875.046,2900.94Zm11.863,5.14h-0.6v-22.84a2.235,2.235,0,0,0-2.218-2.24H855.909a2.235,2.235,0,0,0-2.218,2.24v22.84h-0.6a1.1,1.1,0,0,0-1.091,1.11v1.14a1.665,1.665,0,0,0,1.655,1.67h32.69a1.665,1.665,0,0,0,1.655-1.67v-1.14A1.1,1.1,0,0,0,886.909,2906.08Zm-32.163-22.84a1.164,1.164,0,0,1,1.163-1.17h28.182a1.165,1.165,0,0,1,1.163,1.17v22.84H854.746v-22.84Zm32.2,25.09h0a0.6,0.6,0,0,1-.6.6h-32.69a0.6,0.6,0,0,1-.6-0.6v-1.14a0.039,0.039,0,0,1,.036-0.04h14.693a0.345,0.345,0,0,0,0,.04,0.53,0.53,0,0,0,.527.53h3.382a0.53,0.53,0,0,0,.527-0.53,0.345,0.345,0,0,0,0-.04h14.693a0.039,0.039,0,0,1,.036.04v1.14h0Z" transform="translate(-852 -2881)"/>
</svg>
